<?xml version="1.0" encoding="UTF-8"?>
<!DOCTYPE svg PUBLIC "-//W3C//DTD SVG 1.1//EN" "http://www.w3.org/Graphics/SVG/1.1/DTD/svg11.dtd">
<!-- Creator: CorelDRAW 2021 (64-Bit) -->
<svg xmlns="http://www.w3.org/2000/svg" xml:space="preserve" width="42.3332mm" height="12.7mm" version="1.1" style="shape-rendering:geometricPrecision; text-rendering:geometricPrecision; image-rendering:optimizeQuality; fill-rule:evenodd; clip-rule:evenodd"
viewBox="0 0 4233.32 1270"
 xmlns:xlink="http://www.w3.org/1999/xlink"
 xmlns:xodm="http://www.corel.com/coreldraw/odm/2003">
 <defs>
  <style type="text/css">
   <![CDATA[
    .fil0 {fill:#373435;fill-rule:nonzero}
   ]]>
  </style>
 </defs>
 <g id="Capa_x0020_1">
  <metadata id="CorelCorpID_0Corel-Layer"/>
  <path class="fil0" d="M1902.97 655.03c0,-50.8 -22.01,-75.63 -59.83,-90.31 29.91,-14.67 46.28,-38.95 46.28,-79.59 0,-68.29 -47.98,-97.08 -120.22,-97.08l-141.11 0c-22.02,0 -39.51,19.19 -39.51,41.2l0 342.62 174.41 0c82.97,0 139.98,-37.25 139.98,-116.84zm-92.57 -159.74c0,32.18 -25.4,41.77 -56.44,41.77l-88.06 0 0 -82.41 86.93 0c35.56,0 57.57,8.47 57.57,40.64zm9.6 157.48c0,38.39 -23.71,49.67 -62.66,49.67l-91.44 0 0 -100.47 90.31 0c40.64,0 63.79,11.29 63.79,50.8zm252.3 -184c-90.31,0 -135.46,51.36 -135.46,155.22 0,102.72 45.15,154.65 135.46,154.65 90.31,0 136.03,-51.93 136.03,-154.65 0,-103.86 -45.72,-155.22 -136.03,-155.22zm0 66.04c38.39,0 57.58,28.78 57.58,86.92 -0.57,59.27 -19.76,89.74 -58.14,89.74 -38.38,0 -58.14,-29.35 -58.7,-87.48 0,-59.27 19.75,-89.18 59.26,-89.18zm309.88 1.12c40.64,0 61.52,28.23 63.22,85.8 0,60.39 -21.45,90.87 -64.35,90.87 -42.9,0 -63.22,-30.48 -62.65,-90.87 2.25,-57.57 23.14,-85.8 63.78,-85.8zm100.47 -147.88l-37.25 0 0 127c-19.19,-31.04 -47.98,-46.28 -85.23,-46.28 -79.59,2.82 -119.1,54.75 -119.1,156.35 0,99.34 46.28,149.57 138.85,151.27 93.13,0.56 139.98,-44.03 139.98,-133.78l0 -216.74c0,-20.32 -16.93,-37.82 -37.25,-37.82zm71.12 0l0 58.7 75.07 0 0 -22.01c0.56,-24.27 -11.29,-36.69 -36.13,-36.69l-38.94 0zm0 85.23l0 298.59 75.07 0 0 -262.46c0,-24.28 -11.86,-36.13 -36.13,-36.13l-38.94 0z"/>
 </g>
</svg>
