<?xml version="1.0" encoding="UTF-8"?>
<!DOCTYPE svg PUBLIC "-//W3C//DTD SVG 1.1//EN" "http://www.w3.org/Graphics/SVG/1.1/DTD/svg11.dtd">
<!-- Creator: CorelDRAW 2021 (64-Bit) -->
<svg xmlns="http://www.w3.org/2000/svg" xml:space="preserve" width="42.3332mm" height="12.7mm" version="1.1" style="shape-rendering:geometricPrecision; text-rendering:geometricPrecision; image-rendering:optimizeQuality; fill-rule:evenodd; clip-rule:evenodd"
viewBox="0 0 4233.32 1270"
 xmlns:xlink="http://www.w3.org/1999/xlink"
 xmlns:xodm="http://www.corel.com/coreldraw/odm/2003">
 <defs>
  <style type="text/css">
   <![CDATA[
    .fil0 {fill:#373435;fill-rule:nonzero}
   ]]>
  </style>
 </defs>
 <g id="Capa_x0020_1">
  <metadata id="CorelCorpID_0Corel-Layer"/>
  <path class="fil0" d="M1337.41 429.25l0 342.62 73.94 0 0 -309.88 78.45 309.88 80.15 0 78.46 -309.88 0 309.88 73.94 0 0 -383.82 -116.84 0 -75.07 292.38 -77.32 -292.38 -76.2 0c-22.02,0 -39.51,19.19 -39.51,41.2zm687.48 251.18l-55.32 0c-10.16,0 -18.62,3.39 -25.4,10.73 -14.67,14.11 -31.04,21.44 -48.54,21.44 -36.69,0 -56.44,-23.14 -59.26,-68.86l193.03 0c5.65,-116.84 -38.94,-174.97 -133.77,-174.97 -90.87,0.56 -136.59,51.36 -136.59,152.96 0,101.6 45.15,154.09 135.46,156.91 73.38,0 114.02,-34.99 130.39,-98.21zm-130.39 -150.14c32.18,0 50.8,20.32 55.32,59.83l-112.33 0c5.65,-39.51 24.84,-59.83 57.01,-59.83zm238.19 143.37l-76.76 0c0,34.43 11.29,60.39 33.87,77.33 20.32,17.49 51.92,26.52 93.69,26.52 79.02,0 136.6,-27.09 136.6,-100.47 0,-20.32 -6.78,-38.38 -20.89,-53.05 -16.37,-15.24 -49.67,-28.23 -100.47,-38.39 -38.94,-7.33 -58.14,-19.19 -58.14,-34.43 0,-15.24 14.68,-23.14 44.03,-23.14 24.84,0 40.08,7.34 45.16,20.32 4.51,11.85 15.8,18.06 33.3,18.63l47.41 0c-1.69,-31.05 -13.55,-55.32 -35.56,-72.81 -22.58,-16.94 -53.06,-25.4 -91.44,-25.4 -68.29,1.12 -119.09,31.6 -119.09,95.95 0.56,46.85 34.43,76.2 100.47,88.05 51.36,9.03 77.32,21.45 77.32,36.69 0,19.19 -15.8,28.22 -47.41,28.22 -36.69,0 -60.39,-11.29 -62.09,-44.02zm288.43 0l-76.76 0c0,34.43 11.29,60.39 33.87,77.33 20.32,17.49 51.92,26.52 93.69,26.52 79.02,0 136.6,-27.09 136.6,-100.47 0,-20.32 -6.78,-38.38 -20.89,-53.05 -16.37,-15.24 -49.67,-28.23 -100.47,-38.39 -38.94,-7.33 -58.14,-19.19 -58.14,-34.43 0,-15.24 14.68,-23.14 44.03,-23.14 24.84,0 40.08,7.34 45.16,20.32 4.51,11.85 15.8,18.06 33.3,18.63l47.41 0c-1.69,-31.05 -13.55,-55.32 -35.56,-72.81 -22.58,-16.94 -53.06,-25.4 -91.44,-25.4 -68.29,1.12 -119.09,31.6 -119.09,95.95 0.56,46.85 34.43,76.2 100.47,88.05 51.36,9.03 77.32,21.45 77.32,36.69 0,19.19 -15.8,28.22 -47.41,28.22 -36.69,0 -60.39,-11.29 -62.09,-44.02zm325.12 42.89c-23.71,0 -36.12,-11.28 -37.82,-34.99 0,-22.01 15.24,-36.12 45.16,-41.77 22.01,-4.51 42.33,-10.72 59.83,-18.06l0 27.66c0,42.33 -25.4,67.16 -67.17,67.16zm17.5 -186.26c31.04,0 46.85,8.47 48.54,25.4 0,16.37 -16.37,25.96 -48.54,29.91 -75.64,7.34 -127.56,26.53 -129.26,98.22 0,66.04 49.67,99.34 121.36,93.69 80.71,-5.64 130.38,-42.33 130.38,-124.74l0 -101.6c-1.69,-55.31 -43.46,-82.4 -125.87,-82.4 -68.86,0 -107.81,27.09 -116.84,82.4l75.07 0c3.95,-14.11 18.63,-20.88 45.16,-20.88z"/>
 </g>
</svg>
