<?xml version="1.0" encoding="UTF-8"?>
<!DOCTYPE svg PUBLIC "-//W3C//DTD SVG 1.1//EN" "http://www.w3.org/Graphics/SVG/1.1/DTD/svg11.dtd">
<!-- Creator: CorelDRAW 2021 (64-Bit) -->
<svg xmlns="http://www.w3.org/2000/svg" xml:space="preserve" width="42.3332mm" height="12.7mm" version="1.1" style="shape-rendering:geometricPrecision; text-rendering:geometricPrecision; image-rendering:optimizeQuality; fill-rule:evenodd; clip-rule:evenodd"
viewBox="0 0 4233.32 1270"
 xmlns:xlink="http://www.w3.org/1999/xlink"
 xmlns:xodm="http://www.corel.com/coreldraw/odm/2003">
 <defs>
  <style type="text/css">
   <![CDATA[
    .fil0 {fill:#373435;fill-rule:nonzero}
   ]]>
  </style>
 </defs>
 <g id="Capa_x0020_1">
  <metadata id="CorelCorpID_0Corel-Layer"/>
  <path class="fil0" d="M1018.77 511.66c0,-80.15 -42.33,-123.61 -123.61,-123.61l-130.38 0c-22.02,0 -39.51,19.19 -39.51,41.2l0 342.62 78.45 0 0 -136.59 97.09 0c76.76,0 117.96,-47.98 117.96,-123.62zm-213.92 54.19l0 -111.2 80.15 0c36.69,0 55.32,18.63 55.32,55.88 0,37.26 -19.76,55.88 -59.27,55.32l-76.2 0zm353.9 150.7c-23.71,0 -36.12,-11.28 -37.82,-34.99 0,-22.01 15.24,-36.12 45.16,-41.77 22.01,-4.51 42.33,-10.72 59.83,-18.06l0 27.66c0,42.33 -25.4,67.16 -67.17,67.16zm17.5 -186.26c31.04,0 46.85,8.47 48.54,25.4 0,16.37 -16.37,25.96 -48.54,29.91 -75.64,7.34 -127.56,26.53 -129.26,98.22 0,66.04 49.67,99.34 121.36,93.69 80.71,-5.64 130.38,-42.33 130.38,-124.74l0 -101.6c-1.69,-55.31 -43.46,-82.4 -125.87,-82.4 -68.86,0 -107.81,27.09 -116.84,82.4l75.07 0c3.95,-14.11 18.63,-20.88 45.16,-20.88zm226.9 143.37l-76.76 0c0,34.43 11.29,60.39 33.87,77.33 20.32,17.49 51.92,26.52 93.69,26.52 79.02,0 136.6,-27.09 136.6,-100.47 0,-20.32 -6.78,-38.38 -20.89,-53.05 -16.37,-15.24 -49.67,-28.23 -100.47,-38.39 -38.94,-7.33 -58.14,-19.19 -58.14,-34.43 0,-15.24 14.68,-23.14 44.03,-23.14 24.84,0 40.08,7.34 45.16,20.32 4.51,11.85 15.8,18.06 33.3,18.63l47.41 0c-1.69,-31.05 -13.55,-55.32 -35.56,-72.81 -22.58,-16.94 -53.06,-25.4 -91.44,-25.4 -68.29,1.12 -119.09,31.6 -119.09,95.95 0.56,46.85 34.43,76.2 100.47,88.05 51.36,9.03 77.32,21.45 77.32,36.69 0,19.19 -15.8,28.22 -47.41,28.22 -36.69,0 -60.39,-11.29 -62.09,-44.02zm340.36 -184.01l0 -16.37 -45.15 0 0 -47.41c0,-19.76 -16.37,-37.82 -36.13,-37.82l-38.94 0 0 326.25c-0.57,33.3 12.98,50.8 41.2,53.62 28.22,2.82 54.75,2.82 79.02,0.56l0 -57.01 -23.14 0c-14.68,0 -22.01,-6.77 -22.01,-19.19l0 -165.38 7.9 0c20.88,0 37.25,-15.8 37.25,-37.25zm295.2 190.78l-55.32 0c-10.16,0 -18.62,3.39 -25.4,10.73 -14.67,14.11 -31.04,21.44 -48.54,21.44 -36.69,0 -56.44,-23.14 -59.26,-68.86l193.03 0c5.65,-116.84 -38.94,-174.97 -133.77,-174.97 -90.87,0.56 -136.59,51.36 -136.59,152.96 0,101.6 45.15,154.09 135.46,156.91 73.38,0 114.02,-34.99 130.39,-98.21zm-130.39 -150.14c32.18,0 50.8,20.32 55.32,59.83l-112.33 0c5.65,-39.51 24.84,-59.83 57.01,-59.83zm169.9 241.58l76.19 0 0 -155.22c0,-43.46 20.89,-65.48 62.66,-65.48l25.4 0 0 -77.89 -10.73 0c-99.9,0 -151.27,47.98 -153.52,144.5l0 154.09zm360.11 -59.27c-50.23,0 -76.2,-20.32 -79.02,-60.96l-76.2 0c2.26,83.54 53.62,125.87 155.22,125.87 97.08,0 147.88,-37.25 152.4,-112.32 2.26,-48.54 -18.06,-80.15 -60.96,-94.83 -32.17,-11.28 -62.65,-19.75 -91.44,-26.52 -50.23,-11.29 -74.51,-28.79 -74.51,-53.06 1.7,-29.35 22.02,-44.59 62.66,-45.16 33.3,0 56.44,10.73 69.42,32.74 7.34,14.68 18.63,22.58 35,22.58l44.03 0c-4.52,-79.59 -51.37,-119.1 -141.68,-119.1 -94.83,-0.56 -142.8,38.95 -144.5,119.66 0,50.8 37.26,85.8 112.33,104.99 27.66,7.34 53.62,14.11 76.2,20.88 23.7,6.78 34.99,19.19 34.99,37.82 0.57,31.61 -23.7,47.41 -73.94,47.41l0 0zm221.83 112.33l0 61.52c2.26,1.69 12.42,2.26 31.61,2.26 62.09,0 80.15,-16.93 98.21,-66.04l117.97 -349.39 -52.49 0c-19.2,0 -31.05,9.03 -35.56,26.53l-51.93 180.62 -59.27 -207.15 -85.23 0 101.6 291.82c11.85,39.51 -2.82,59.83 -44.03,59.83l-20.88 0zm537.35 -53.06l0 -175.54c0.56,-85.23 -41.21,-127.56 -126.44,-127.56 -85.23,0 -128.12,42.33 -128.12,127.56l0 175.54 76.19 0 0 -190.78c0.57,-31.04 17.5,-46.28 50.8,-46.28 33.31,0 50.24,15.24 51.93,46.28l0 153.53c0,23.7 12.42,35.56 37.26,37.25l38.38 0zm297.46 -91.44l-56.45 0c-9.59,0 -18.06,3.39 -25.39,10.73 -12.42,14.11 -27.66,21.44 -45.16,21.44 -41.77,0.57 -62.65,-29.35 -62.65,-88.61 0,-59.27 19.75,-89.18 59.26,-89.18 23.71,0 39.51,10.72 48.55,31.04l81.84 0c-12.98,-64.91 -55.88,-97.08 -128.13,-97.08 -92,1.69 -137.72,53.05 -137.72,155.22 2.26,102.72 48.54,154.65 138.85,154.65 69.43,1.7 113.45,-37.25 127,-98.21z"/>
 </g>
</svg>
