<?xml version="1.0" encoding="UTF-8"?>
<!DOCTYPE svg PUBLIC "-//W3C//DTD SVG 1.1//EN" "http://www.w3.org/Graphics/SVG/1.1/DTD/svg11.dtd">
<!-- Creator: CorelDRAW 2021 (64-Bit) -->
<svg xmlns="http://www.w3.org/2000/svg" xml:space="preserve" width="42.3332mm" height="12.7mm" version="1.1" style="shape-rendering:geometricPrecision; text-rendering:geometricPrecision; image-rendering:optimizeQuality; fill-rule:evenodd; clip-rule:evenodd"
viewBox="0 0 4233.32 1270"
 xmlns:xlink="http://www.w3.org/1999/xlink"
 xmlns:xodm="http://www.corel.com/coreldraw/odm/2003">
 <defs>
  <style type="text/css">
   <![CDATA[
    .fil0 {fill:#373435;fill-rule:nonzero}
   ]]>
  </style>
 </defs>
 <g id="Capa_x0020_1">
  <metadata id="CorelCorpID_0Corel-Layer"/>
  <path class="fil0" d="M1407.11 712.6c-50.23,0 -76.2,-20.32 -79.02,-60.96l-76.2 0c2.26,83.54 53.62,125.87 155.22,125.87 97.08,0 147.88,-37.25 152.4,-112.32 2.26,-48.54 -18.06,-80.15 -60.96,-94.83 -32.17,-11.28 -62.65,-19.75 -91.44,-26.52 -50.23,-11.29 -74.51,-28.79 -74.51,-53.06 1.7,-29.35 22.02,-44.59 62.66,-45.16 33.3,0 56.44,10.73 69.42,32.74 7.34,14.68 18.63,22.58 35,22.58l44.03 0c-4.52,-79.59 -51.37,-119.1 -141.68,-119.1 -94.83,-0.56 -142.8,38.95 -144.5,119.66 0,50.8 37.26,85.8 112.33,104.99 27.66,7.34 53.62,14.11 76.2,20.88 23.7,6.78 34.99,19.19 34.99,37.82 0.57,31.61 -23.7,47.41 -73.94,47.41l0 0zm323.99 -243.83c-90.31,0 -135.46,51.36 -135.46,155.22 0,102.72 45.15,154.65 135.46,154.65 90.31,0 136.03,-51.93 136.03,-154.65 0,-103.86 -45.72,-155.22 -136.03,-155.22zm0 66.04c38.39,0 57.58,28.78 57.58,86.92 -0.57,59.27 -19.76,89.74 -58.14,89.74 -38.38,0 -58.14,-29.35 -58.7,-87.48 0,-59.27 19.75,-89.18 59.26,-89.18zm211.1 -146.76l-38.94 0 0 383.82 75.07 0 0 -347.13c0,-19.76 -16.37,-36.69 -36.13,-36.69zm183.44 328.5c-23.71,0 -36.12,-11.28 -37.82,-34.99 0,-22.01 15.24,-36.12 45.16,-41.77 22.01,-4.51 42.33,-10.72 59.83,-18.06l0 27.66c0,42.33 -25.4,67.16 -67.17,67.16zm17.5 -186.26c31.04,0 46.85,8.47 48.54,25.4 0,16.37 -16.37,25.96 -48.54,29.91 -75.64,7.34 -127.56,26.53 -129.26,98.22 0,66.04 49.67,99.34 121.36,93.69 80.71,-5.64 130.38,-42.33 130.38,-124.74l0 -101.6c-1.69,-55.31 -43.46,-82.4 -125.87,-82.4 -68.86,0 -107.81,27.09 -116.84,82.4l75.07 0c3.95,-14.11 18.63,-20.88 45.16,-20.88zm308.75 -142.24l-110.63 0c-26.53,0.57 -39.51,14.68 -39.51,41.2l0 342.62 129.25 0c35,0 62.09,-2.82 81.28,-7.9 73.94,-19.76 114.58,-89.75 114.58,-184.01 0,-122.48 -53.05,-191.91 -174.97,-191.91zm94.82 191.91c0,80.72 -27.09,122.48 -104.98,122.48l-62.66 0 0 -247.22 72.82 0c71.12,0 94.82,47.98 94.82,124.74zm430.67 75.07c0,-50.8 -22.01,-75.63 -59.83,-90.31 29.91,-14.67 46.28,-38.95 46.28,-79.59 0,-68.29 -47.98,-97.08 -120.22,-97.08l-141.11 0c-22.02,0 -39.51,19.19 -39.51,41.2l0 342.62 174.41 0c82.97,0 139.98,-37.25 139.98,-116.84zm-92.57 -159.74c0,32.18 -25.4,41.77 -56.44,41.77l-88.06 0 0 -82.41 86.93 0c35.56,0 57.57,8.47 57.57,40.64zm9.6 157.48c0,38.39 -23.71,49.67 -62.66,49.67l-91.44 0 0 -100.47 90.31 0c40.64,0 63.79,11.29 63.79,50.8z"/>
 </g>
</svg>
